<?xml version="1.0" encoding="UTF-8" standalone="no"?>
<svg
   xmlns:dc="http://purl.org/dc/elements/1.1/"
   xmlns:cc="http://creativecommons.org/ns#"
   xmlns:rdf="http://www.w3.org/1999/02/22-rdf-syntax-ns#"
   xmlns:svg="http://www.w3.org/2000/svg"
   xmlns="http://www.w3.org/2000/svg"
   xmlns:xlink="http://www.w3.org/1999/xlink"
   xmlns:sodipodi="http://sodipodi.sourceforge.net/DTD/sodipodi-0.dtd"
   xmlns:inkscape="http://www.inkscape.org/namespaces/inkscape"
   viewBox="0 0 260 27"
   version="1.1"
   id="svg30"
   sodipodi:docname="long-logo-white.svg"
   width="260"
   height="27"
   inkscape:version="0.92.4 (5da689c313, 2019-01-14)">
  <metadata
     id="metadata34">
    <rdf:RDF>
      <cc:Work
         rdf:about="">
        <dc:format>image/svg+xml</dc:format>
        <dc:type
           rdf:resource="http://purl.org/dc/dcmitype/StillImage" />
        <dc:title>long-logo-white</dc:title>
      </cc:Work>
    </rdf:RDF>
  </metadata>
  <sodipodi:namedview
     pagecolor="#ffffff"
     bordercolor="#666666"
     borderopacity="1"
     objecttolerance="10"
     gridtolerance="10"
     guidetolerance="10"
     inkscape:pageopacity="0"
     inkscape:pageshadow="2"
     inkscape:window-width="1920"
     inkscape:window-height="1057"
     id="namedview32"
     showgrid="false"
     inkscape:pagecheckerboard="false"
     showguides="true"
     inkscape:guide-bbox="true"
     inkscape:zoom="2.8284271"
     inkscape:cx="135.77691"
     inkscape:cy="69.775203"
     inkscape:window-x="3832"
     inkscape:window-y="-8"
     inkscape:window-maximized="1"
     inkscape:current-layer="Layer_1-2">
    <sodipodi:guide
       position="260.215,35.708892"
       orientation="1,0"
       id="guide856"
       inkscape:locked="false"
       inkscape:label=""
       inkscape:color="rgb(0,0,255)" />
  </sodipodi:namedview>
  <defs
     id="defs4">
    <linearGradient
       inkscape:collect="always"
       id="linearGradient869">
      <stop
         style="stop-color:#ff00ff;stop-opacity:1;"
         offset="0"
         id="stop865" />
      <stop
         style="stop-color:#999999;stop-opacity:1"
         offset="1"
         id="stop867" />
    </linearGradient>
    <style
       id="style2">.cls-1{fill:#fff;}</style>
    <linearGradient
       inkscape:collect="always"
       xlink:href="#linearGradient869"
       id="linearGradient871"
       x1="0.75"
       y1="12.981169"
       x2="30.043074"
       y2="13.688275"
       gradientUnits="userSpaceOnUse" />
    <linearGradient
       inkscape:collect="always"
       xlink:href="#linearGradient869"
       id="linearGradient881"
       gradientUnits="userSpaceOnUse"
       x1="0.75"
       y1="12.981169"
       x2="50.372395"
       y2="12.981169" />
  </defs>
  <title
     id="title6">long-logo-white</title>
  <g
     id="Layer_2"
     data-name="Layer 2"
     transform="translate(0,0.67000008)">
    <g
       id="Layer_1-2"
       data-name="Layer 1">
      <g
         aria-label="S"
         style="font-style:normal;font-variant:normal;font-weight:normal;font-stretch:normal;font-size:20.69087219px;line-height:1.25;font-family:Audiowide;-inkscape-font-specification:Audiowide;font-variant-ligatures:normal;font-variant-caps:normal;font-variant-numeric:normal;font-feature-settings:normal;text-align:start;letter-spacing:0px;word-spacing:0px;writing-mode:lr-tb;text-anchor:start;fill:url(#linearGradient871);fill-opacity:1;stroke:none;stroke-width:1"
         id="text875">
        <path
           d="m 24.879248,17.948461 q 0,1.296547 -0.336766,2.34052 -0.319927,1.027135 -0.858752,1.818533 -0.538824,0.791399 -1.26287,1.347062 -0.724046,0.555664 -1.498607,0.909267 -0.77456,0.353604 -1.582798,0.521987 -0.791398,0.168383 -1.498606,0.168383 H 0.9520593 V 20.676261 H 17.840849 q 1.262871,0 1.95324,-0.740884 0.707207,-0.740884 0.707207,-1.986916 0,-0.606178 -0.185221,-1.111327 -0.185221,-0.505148 -0.538824,-0.87559 -0.336766,-0.370442 -0.841914,-0.572501 -0.48831,-0.20206 -1.094488,-0.20206 H 7.7715606 q -1.0608113,0 -2.2900054,-0.370442 Q 4.2523612,14.429261 3.1915499,13.587347 2.1475768,12.745434 1.4403693,11.381533 0.75,10.017633 0.75,8.0475549 0.75,6.0774768 1.4403693,4.7304148 2.1475768,3.3665145 3.1915499,2.5246008 4.2523612,1.6658487 5.4815552,1.2954067 6.7107493,0.90812637 7.7715606,0.90812637 H 22.673434 V 5.2860778 H 7.7715606 q -1.2460323,0 -1.9532399,0.7577224 -0.6903692,0.7577224 -0.6903692,2.0037547 0,1.2628706 0.6903692,2.0037551 0.7072076,0.724045 1.9532399,0.724045 h 10.0692884 0.03368 q 0.707207,0.01684 1.498606,0.20206 0.791399,0.168383 1.56596,0.538825 0.791399,0.370442 1.498606,0.942943 0.707208,0.555663 1.246032,1.347062 0.555663,0.791399 0.875591,1.818534 0.319927,1.027134 0.319927,2.323682 z"
           style="font-size:34.48478699px;fill:url(#linearGradient871);fill-opacity:1;stroke-width:1"
           id="path859" />
      </g>
      <text
         xml:space="preserve"
         style="font-style:normal;font-variant:normal;font-weight:normal;font-stretch:normal;font-size:16px;line-height:1.25;font-family:Arial;-inkscape-font-specification:Arial;font-variant-ligatures:normal;font-variant-caps:normal;font-variant-numeric:normal;font-feature-settings:normal;text-align:start;letter-spacing:0px;word-spacing:0px;writing-mode:lr-tb;text-anchor:start;fill:#000000;fill-opacity:1;stroke:none;"
         x="-20.75"
         y="-50.170002"
         id="text842"><tspan
           sodipodi:role="line"
           id="tspan840"
           x="-20.75"
           y="-35.751469" /></text>
      <text
         xml:space="preserve"
         style="font-style:normal;font-variant:normal;font-weight:normal;font-stretch:normal;font-size:16px;line-height:1.25;font-family:Arial;-inkscape-font-specification:Arial;font-variant-ligatures:normal;font-variant-caps:normal;font-variant-numeric:normal;font-feature-settings:normal;text-align:start;letter-spacing:0px;word-spacing:0px;writing-mode:lr-tb;text-anchor:start;fill:#000000;fill-opacity:1;stroke:none"
         x="11.5"
         y="-64.419998"
         id="text846"><tspan
           sodipodi:role="line"
           id="tspan844"
           x="11.5"
           y="-50.007927" /></text>
      <g
         aria-label="SHAPE EFFECTS"
         style="font-style:normal;font-variant:normal;font-weight:normal;font-stretch:normal;font-size:16px;line-height:1.25;font-family:Montserrat;-inkscape-font-specification:Montserrat;font-variant-ligatures:normal;font-variant-caps:normal;font-variant-numeric:normal;font-feature-settings:normal;text-align:start;letter-spacing:0px;word-spacing:0px;writing-mode:lr-tb;text-anchor:start;fill:#999999;fill-opacity:1;stroke:none"
         id="text843">
        <path
           d="m 67.666,21.57317 q -1.896,0 -3.672,-0.576 -1.752,-0.6 -2.76,-1.536 l 0.888,-1.872 q 0.96,0.864 2.448,1.416 1.512,0.528 3.096,0.528 2.088,0 3.12,-0.696 1.032,-0.72 1.032,-1.896 0,-0.864 -0.576,-1.392 -0.552,-0.552 -1.392,-0.84 -0.816,-0.288 -2.328,-0.648 -1.896,-0.456 -3.072,-0.912 -1.152,-0.456 -1.992,-1.392 -0.816,-0.96 -0.816,-2.5679997 0,-1.344 0.696,-2.424 0.72,-1.08 2.16,-1.728 1.44,-0.648 3.576,-0.648 1.488,0 2.928,0.384 1.44,0.384 2.472,1.104 l -0.792,1.92 q -1.056,-0.672 -2.256,-1.008 -1.2,-0.36 -2.352,-0.36 -2.04,0 -3.072,0.744 -1.008,0.744 -1.008,1.92 0,0.864 0.576,1.4159997 0.576,0.528 1.416,0.84 0.864,0.288 2.328,0.624 1.896,0.456 3.048,0.912 1.152,0.456 1.968,1.392 0.84,0.936 0.84,2.52 0,1.32 -0.72,2.424 -0.72,1.08 -2.184,1.728 -1.464,0.624 -3.6,0.624 z"
           style="font-style:normal;font-variant:normal;font-weight:500;font-stretch:normal;font-size:24px;font-family:Montserrat;-inkscape-font-specification:'Montserrat Medium';fill:#999999;fill-opacity:1"
           id="path834" />
        <path
           d="M 92.12425,4.5811703 V 21.38117 h -2.4 v -7.488 h -9.648 v 7.488 h -2.4 V 4.5811703 h 2.4 V 11.80517 h 9.648 V 4.5811703 Z"
           style="font-style:normal;font-variant:normal;font-weight:500;font-stretch:normal;font-size:24px;font-family:Montserrat;-inkscape-font-specification:'Montserrat Medium';fill:#999999;fill-opacity:1"
           id="path836" />
        <path
           d="m 107.88025,17.18117 h -8.928 l -1.848,4.2 h -2.472 l 7.608,-16.7999997 h 2.376 l 7.632,16.7999997 h -2.52 z m -0.84,-1.92 -3.624,-8.2319997 -3.624,8.2319997 z"
           style="font-style:normal;font-variant:normal;font-weight:500;font-stretch:normal;font-size:24px;font-family:Montserrat;-inkscape-font-specification:'Montserrat Medium';fill:#999999;fill-opacity:1"
           id="path838" />
        <path
           d="m 121.30638,4.5811703 q 3.264,0 5.13599,1.56 1.872,1.56 1.872,4.2959997 0,2.736 -1.872,4.296 -1.87199,1.56 -5.13599,1.56 h -4.152 v 5.088 h -2.40001 V 4.5811703 Z m -0.072,9.6239997 q 2.28,0 3.48,-0.96 1.2,-0.984 1.2,-2.808 0,-1.8239997 -1.2,-2.7839997 -1.2,-0.984 -3.48,-0.984 h -4.08 V 14.20517 Z"
           style="font-style:normal;font-variant:normal;font-weight:500;font-stretch:normal;font-size:24px;font-family:Montserrat;-inkscape-font-specification:'Montserrat Medium';fill:#999999;fill-opacity:1"
           id="path840" />
        <path
           d="m 144.05575,19.29317 v 2.088 h -12.192 V 4.5811703 h 11.856 v 2.088 h -9.456 V 11.82917 h 8.424 v 2.04 h -8.424 v 5.424 z"
           style="font-style:normal;font-variant:normal;font-weight:500;font-stretch:normal;font-size:24px;font-family:Montserrat;-inkscape-font-specification:'Montserrat Medium';fill:#999999;fill-opacity:1"
           id="path842" />
        <path
           d="m 166.60262,19.29317 v 2.088 h -12.192 V 4.5811703 h 11.856 v 2.088 h -9.456 V 11.82917 h 8.424 v 2.04 h -8.424 v 5.424 z"
           style="font-style:normal;font-variant:normal;font-weight:500;font-stretch:normal;font-size:24px;font-family:Montserrat;-inkscape-font-specification:'Montserrat Medium';fill:#999999;fill-opacity:1"
           id="path844" />
        <path
           d="M 172.88875,6.6691703 V 12.52517 h 8.424 v 2.064 h -8.424 v 6.792 h -2.4 V 4.5811703 h 11.856 v 2.088 z"
           style="font-style:normal;font-variant:normal;font-weight:500;font-stretch:normal;font-size:24px;font-family:Montserrat;-inkscape-font-specification:'Montserrat Medium';fill:#999999;fill-opacity:1"
           id="path846" />
        <path
           d="M 188.12312,6.6691703 V 12.52517 h 8.424 v 2.064 h -8.424 v 6.792 h -2.4 V 4.5811703 h 11.856 v 2.088 z"
           style="font-style:normal;font-variant:normal;font-weight:500;font-stretch:normal;font-size:24px;font-family:Montserrat;-inkscape-font-specification:'Montserrat Medium';fill:#999999;fill-opacity:1"
           id="path848" />
        <path
           d="m 213.1495,19.29317 v 2.088 h -12.192 V 4.5811703 h 11.856 v 2.088 h -9.456 V 11.82917 h 8.424 v 2.04 h -8.424 v 5.424 z"
           style="font-style:normal;font-variant:normal;font-weight:500;font-stretch:normal;font-size:24px;font-family:Montserrat;-inkscape-font-specification:'Montserrat Medium';fill:#999999;fill-opacity:1"
           id="path850" />
        <path
           d="m 224.45387,21.57317 q -2.52,0 -4.56,-1.104 -2.016,-1.128 -3.168,-3.072 -1.152,-1.968 -1.152,-4.416 0,-2.448 1.152,-4.3919997 1.152,-1.968 3.192,-3.072 2.04,-1.128 4.56,-1.128 1.968,0 3.6,0.672 1.632,0.648 2.784,1.944 l -1.56,1.512 q -1.896,-1.992 -4.728,-1.992 -1.872,0 -3.384,0.84 -1.512,0.84 -2.376,2.328 -0.84,1.4639997 -0.84,3.2879997 0,1.824 0.84,3.312 0.864,1.464 2.376,2.304 1.512,0.84 3.384,0.84 2.808,0 4.728,-2.016 l 1.56,1.512 q -1.152,1.296 -2.808,1.968 -1.632,0.672 -3.6,0.672 z"
           style="font-style:normal;font-variant:normal;font-weight:500;font-stretch:normal;font-size:24px;font-family:Montserrat;-inkscape-font-specification:'Montserrat Medium';fill:#999999;fill-opacity:1"
           id="path852" />
        <path
           d="m 237.43412,6.6691703 h -5.76 v -2.088 h 13.896 v 2.088 h -5.76 V 21.38117 h -2.376 z"
           style="font-style:normal;font-variant:normal;font-weight:500;font-stretch:normal;font-size:24px;font-family:Montserrat;-inkscape-font-specification:'Montserrat Medium';fill:#999999;fill-opacity:1"
           id="path854" />
        <path
           d="m 252.86912,21.57317 q -1.896,0 -3.672,-0.576 -1.752,-0.6 -2.76,-1.536 l 0.88801,-1.872 q 0.95999,0.864 2.44799,1.416 1.512,0.528 3.096,0.528 2.088,0 3.12,-0.696 1.032,-0.72 1.032,-1.896 0,-0.864 -0.57599,-1.392 -0.55201,-0.552 -1.39201,-0.84 -0.816,-0.288 -2.328,-0.648 -1.896,-0.456 -3.072,-0.912 -1.152,-0.456 -1.992,-1.392 -0.816,-0.96 -0.816,-2.5679997 0,-1.344 0.696,-2.424 0.72,-1.08 2.16,-1.728 1.44,-0.648 3.576,-0.648 1.488,0 2.928,0.384 1.44,0.384 2.472,1.104 l -0.79199,1.92 q -1.05601,-0.672 -2.25601,-1.008 -1.2,-0.36 -2.352,-0.36 -2.04,0 -3.072,0.744 -1.008,0.744 -1.008,1.92 0,0.864 0.576,1.4159997 0.57601,0.528 1.416,0.84 0.864,0.288 2.328,0.624 1.896,0.456 3.04801,0.912 1.15199,0.456 1.96799,1.392 0.84001,0.936 0.84001,2.52 0,1.32 -0.72001,2.424 -0.71999,1.08 -2.18399,1.728 -1.46401,0.624 -3.60001,0.624 z"
           style="font-style:normal;font-variant:normal;font-weight:500;font-stretch:normal;font-size:24px;font-family:Montserrat;-inkscape-font-specification:'Montserrat Medium';fill:#999999;fill-opacity:1"
           id="path856" />
      </g>
      <g
         aria-label="E"
         style="font-style:normal;font-variant:normal;font-weight:normal;font-stretch:normal;font-size:20.69087219px;line-height:1.25;font-family:Audiowide;-inkscape-font-specification:Audiowide;font-variant-ligatures:normal;font-variant-caps:normal;font-variant-numeric:normal;font-feature-settings:normal;text-align:start;letter-spacing:0px;word-spacing:0px;writing-mode:lr-tb;text-anchor:start;fill:url(#linearGradient881);fill-opacity:1;stroke:none;stroke-width:1"
         id="text847">
        <path
           d="M 49.528431,15.186983 H 35.704208 v -4.411628 h 13.824223 z m 1.970079,9.86723 H 35.704208 q -0.909267,0 -1.986917,-0.319928 -1.077649,-0.319927 -2.003754,-1.043973 -0.909267,-0.740884 -1.532283,-1.902725 -0.606178,-1.178679 -0.606178,-2.879345 V 3.1139404 q 0,-0.4546334 0.168382,-0.858752 0.168383,-0.4041186 0.454634,-0.7072076 0.303089,-0.3030889 0.707207,-0.4714717 0.404119,-0.16838273 0.875591,-0.16838273 H 51.49851 V 5.2860778 H 33.953027 V 18.908242 q 0,0.858752 0.454634,1.313386 0.454633,0.454633 1.330223,0.454633 H 51.49851 Z"
           style="font-size:34.48478699px;fill:url(#linearGradient881);fill-opacity:1;stroke-width:1"
           id="path862" />
      </g>
    </g>
  </g>
</svg>
