<?xml version="1.0" encoding="UTF-8" standalone="no"?>
<svg
   xmlns:dc="http://purl.org/dc/elements/1.1/"
   xmlns:cc="http://creativecommons.org/ns#"
   xmlns:rdf="http://www.w3.org/1999/02/22-rdf-syntax-ns#"
   xmlns:svg="http://www.w3.org/2000/svg"
   xmlns="http://www.w3.org/2000/svg"
   xmlns:xlink="http://www.w3.org/1999/xlink"
   xmlns:sodipodi="http://sodipodi.sourceforge.net/DTD/sodipodi-0.dtd"
   xmlns:inkscape="http://www.inkscape.org/namespaces/inkscape"
   viewBox="0 0 52 27"
   version="1.1"
   id="svg30"
   sodipodi:docname="se_ico.svg"
   width="52"
   height="27"
   inkscape:version="0.92.4 (5da689c313, 2019-01-14)">
  <metadata
     id="metadata34">
    <rdf:RDF>
      <cc:Work
         rdf:about="">
        <dc:format>image/svg+xml</dc:format>
        <dc:type
           rdf:resource="http://purl.org/dc/dcmitype/StillImage" />
        <dc:title>long-logo-white</dc:title>
      </cc:Work>
    </rdf:RDF>
  </metadata>
  <sodipodi:namedview
     pagecolor="#ffffff"
     bordercolor="#666666"
     borderopacity="1"
     objecttolerance="10"
     gridtolerance="10"
     guidetolerance="10"
     inkscape:pageopacity="0"
     inkscape:pageshadow="2"
     inkscape:window-width="1920"
     inkscape:window-height="1057"
     id="namedview32"
     showgrid="false"
     inkscape:pagecheckerboard="false"
     showguides="true"
     inkscape:guide-bbox="true"
     inkscape:zoom="2.8284271"
     inkscape:cx="76.91027"
     inkscape:cy="-57.504019"
     inkscape:window-x="3832"
     inkscape:window-y="-8"
     inkscape:window-maximized="1"
     inkscape:current-layer="Layer_1-2">
    <sodipodi:guide
       position="52.325902,-19.79899"
       orientation="1,0"
       id="guide856"
       inkscape:locked="false"
       inkscape:label=""
       inkscape:color="rgb(0,0,255)" />
  </sodipodi:namedview>
  <defs
     id="defs4">
    <linearGradient
       inkscape:collect="always"
       id="linearGradient869">
      <stop
         style="stop-color:#ff00ff;stop-opacity:1;"
         offset="0"
         id="stop865" />
      <stop
         style="stop-color:#999999;stop-opacity:1"
         offset="1"
         id="stop867" />
    </linearGradient>
    <style
       id="style2">.cls-1{fill:#fff;}</style>
    <linearGradient
       inkscape:collect="always"
       xlink:href="#linearGradient869"
       id="linearGradient871"
       x1="0.75"
       y1="12.981169"
       x2="30.043074"
       y2="13.688275"
       gradientUnits="userSpaceOnUse" />
    <linearGradient
       inkscape:collect="always"
       xlink:href="#linearGradient869"
       id="linearGradient881"
       gradientUnits="userSpaceOnUse"
       x1="0.75"
       y1="12.981169"
       x2="50.372395"
       y2="12.981169" />
    <linearGradient
       inkscape:collect="always"
       xlink:href="#linearGradient869"
       id="linearGradient842"
       gradientUnits="userSpaceOnUse"
       x1="0.75"
       y1="12.981169"
       x2="30.043074"
       y2="13.688275" />
    <linearGradient
       inkscape:collect="always"
       xlink:href="#linearGradient869"
       id="linearGradient844"
       gradientUnits="userSpaceOnUse"
       x1="0.75"
       y1="12.981169"
       x2="50.372395"
       y2="12.981169" />
  </defs>
  <title
     id="title6">long-logo-white</title>
  <g
     id="Layer_2"
     data-name="Layer 2"
     transform="translate(0,0.67000008)">
    <g
       id="Layer_1-2"
       data-name="Layer 1">
      <g
         aria-label="S"
         style="font-style:normal;font-variant:normal;font-weight:normal;font-stretch:normal;font-size:20.69087219px;line-height:1.25;font-family:Audiowide;-inkscape-font-specification:Audiowide;font-variant-ligatures:normal;font-variant-caps:normal;font-variant-numeric:normal;font-feature-settings:normal;text-align:start;letter-spacing:0px;word-spacing:0px;writing-mode:lr-tb;text-anchor:start;fill:url(#linearGradient871);fill-opacity:1;stroke:none;stroke-width:1"
         id="text875">
        <path
           d="m 24.879248,17.948461 q 0,1.296547 -0.336766,2.34052 -0.319927,1.027135 -0.858752,1.818533 -0.538824,0.791399 -1.26287,1.347062 -0.724046,0.555664 -1.498607,0.909267 -0.77456,0.353604 -1.582798,0.521987 -0.791398,0.168383 -1.498606,0.168383 H 0.9520593 V 20.676261 H 17.840849 q 1.262871,0 1.95324,-0.740884 0.707207,-0.740884 0.707207,-1.986916 0,-0.606178 -0.185221,-1.111327 -0.185221,-0.505148 -0.538824,-0.87559 -0.336766,-0.370442 -0.841914,-0.572501 -0.48831,-0.20206 -1.094488,-0.20206 H 7.7715606 q -1.0608113,0 -2.2900054,-0.370442 Q 4.2523612,14.429261 3.1915499,13.587347 2.1475768,12.745434 1.4403693,11.381533 0.75,10.017633 0.75,8.0475549 0.75,6.0774768 1.4403693,4.7304148 2.1475768,3.3665145 3.1915499,2.5246008 4.2523612,1.6658487 5.4815552,1.2954067 6.7107493,0.90812637 7.7715606,0.90812637 H 22.673434 V 5.2860778 H 7.7715606 q -1.2460323,0 -1.9532399,0.7577224 -0.6903692,0.7577224 -0.6903692,2.0037547 0,1.2628706 0.6903692,2.0037551 0.7072076,0.724045 1.9532399,0.724045 h 10.0692884 0.03368 q 0.707207,0.01684 1.498606,0.20206 0.791399,0.168383 1.56596,0.538825 0.791399,0.370442 1.498606,0.942943 0.707208,0.555663 1.246032,1.347062 0.555663,0.791399 0.875591,1.818534 0.319927,1.027134 0.319927,2.323682 z"
           style="font-size:34.48478699px;fill:url(#linearGradient842);fill-opacity:1;stroke-width:1"
           id="path859"
           inkscape:connector-curvature="0" />
      </g>
      <text
         xml:space="preserve"
         style="font-style:normal;font-variant:normal;font-weight:normal;font-stretch:normal;font-size:16px;line-height:1.25;font-family:Arial;-inkscape-font-specification:Arial;font-variant-ligatures:normal;font-variant-caps:normal;font-variant-numeric:normal;font-feature-settings:normal;text-align:start;letter-spacing:0px;word-spacing:0px;writing-mode:lr-tb;text-anchor:start;fill:#000000;fill-opacity:1;stroke:none"
         x="-20.75"
         y="-50.170002"
         id="text842"><tspan
           sodipodi:role="line"
           id="tspan840"
           x="-20.75"
           y="-35.757931" /></text>
      <text
         xml:space="preserve"
         style="font-style:normal;font-variant:normal;font-weight:normal;font-stretch:normal;font-size:16px;line-height:1.25;font-family:Arial;-inkscape-font-specification:Arial;font-variant-ligatures:normal;font-variant-caps:normal;font-variant-numeric:normal;font-feature-settings:normal;text-align:start;letter-spacing:0px;word-spacing:0px;writing-mode:lr-tb;text-anchor:start;fill:#000000;fill-opacity:1;stroke:none"
         x="11.5"
         y="-64.419998"
         id="text846"><tspan
           sodipodi:role="line"
           id="tspan844"
           x="11.5"
           y="-50.007927" /></text>
      <g
         aria-label="E"
         style="font-style:normal;font-variant:normal;font-weight:normal;font-stretch:normal;font-size:20.69087219px;line-height:1.25;font-family:Audiowide;-inkscape-font-specification:Audiowide;font-variant-ligatures:normal;font-variant-caps:normal;font-variant-numeric:normal;font-feature-settings:normal;text-align:start;letter-spacing:0px;word-spacing:0px;writing-mode:lr-tb;text-anchor:start;fill:url(#linearGradient881);fill-opacity:1;stroke:none;stroke-width:1"
         id="text847">
        <path
           d="M 49.528431,15.186983 H 35.704208 v -4.411628 h 13.824223 z m 1.970079,9.86723 H 35.704208 q -0.909267,0 -1.986917,-0.319928 -1.077649,-0.319927 -2.003754,-1.043973 -0.909267,-0.740884 -1.532283,-1.902725 -0.606178,-1.178679 -0.606178,-2.879345 V 3.1139404 q 0,-0.4546334 0.168382,-0.858752 0.168383,-0.4041186 0.454634,-0.7072076 0.303089,-0.3030889 0.707207,-0.4714717 0.404119,-0.16838273 0.875591,-0.16838273 H 51.49851 V 5.2860778 H 33.953027 V 18.908242 q 0,0.858752 0.454634,1.313386 0.454633,0.454633 1.330223,0.454633 H 51.49851 Z"
           style="font-size:34.48478699px;fill:url(#linearGradient844);fill-opacity:1;stroke-width:1"
           id="path862"
           inkscape:connector-curvature="0" />
      </g>
    </g>
  </g>
</svg>
